<svg width="43" height="13" viewBox="0 0 43 13" fill="none" xmlns="http://www.w3.org/2000/svg">
<path d="M1.93906 12.192C1.53373 12.192 1.1924 12.0533 0.915063 11.776C0.648396 11.488 0.515063 11.136 0.515063 10.72C0.515063 10.2933 0.648396 9.94133 0.915063 9.664C1.1924 9.376 1.53373 9.232 1.93906 9.232C2.3444 9.232 2.6804 9.376 2.94706 9.664C3.2244 9.94133 3.36306 10.2933 3.36306 10.72C3.36306 11.136 3.2244 11.488 2.94706 11.776C2.6804 12.0533 2.3444 12.192 1.93906 12.192ZM5.37594 12V4.064H7.29594L7.45594 5.088H7.51994C7.8506 4.75733 8.2026 4.47467 8.57594 4.24C8.94927 3.99467 9.39727 3.872 9.91994 3.872C10.4853 3.872 10.9386 3.98933 11.2799 4.224C11.6319 4.448 11.9093 4.77333 12.1119 5.2C12.4639 4.83733 12.8373 4.528 13.2319 4.272C13.6266 4.00533 14.0853 3.872 14.6079 3.872C15.4613 3.872 16.0853 4.16 16.4799 4.736C16.8853 5.30133 17.0879 6.08 17.0879 7.072V12H14.7359V7.376C14.7359 6.8 14.6559 6.40533 14.4959 6.192C14.3466 5.97867 14.1013 5.872 13.7599 5.872C13.3653 5.872 12.9119 6.128 12.3999 6.64V12H10.0479V7.376C10.0479 6.8 9.96794 6.40533 9.80794 6.192C9.6586 5.97867 9.41327 5.872 9.07194 5.872C8.67727 5.872 8.22927 6.128 7.72794 6.64V12H5.37594ZM22.5507 12.192C21.8147 12.192 21.148 12.032 20.5507 11.712C19.964 11.3813 19.4947 10.9067 19.1427 10.288C18.8014 9.65867 18.6307 8.90667 18.6307 8.032C18.6307 7.14667 18.8227 6.39467 19.2067 5.776C19.5907 5.15733 20.0974 4.688 20.7267 4.368C21.356 4.03733 22.0334 3.872 22.7587 3.872C23.2494 3.872 23.6814 3.952 24.0547 4.112C24.4387 4.272 24.78 4.47467 25.0787 4.72L23.9747 6.24C23.6014 5.93067 23.244 5.776 22.9027 5.776C22.3374 5.776 21.884 5.97867 21.5427 6.384C21.212 6.78933 21.0467 7.33867 21.0467 8.032C21.0467 8.71467 21.212 9.264 21.5427 9.68C21.884 10.0853 22.3107 10.288 22.8227 10.288C23.0787 10.288 23.3294 10.2347 23.5747 10.128C23.82 10.0107 24.044 9.872 24.2467 9.712L25.1747 11.248C24.78 11.5893 24.3534 11.8347 23.8947 11.984C23.436 12.1227 22.988 12.192 22.5507 12.192ZM28.9423 12.192C27.961 12.192 27.1716 11.824 26.5743 11.088C25.9876 10.3413 25.6943 9.32267 25.6943 8.032C25.6943 7.168 25.849 6.42667 26.1583 5.808C26.4783 5.17867 26.889 4.69867 27.3903 4.368C27.9023 4.03733 28.4356 3.872 28.9903 3.872C29.4276 3.872 29.7956 3.94667 30.0943 4.096C30.393 4.24533 30.6756 4.448 30.9423 4.704L30.8463 3.488V0.783999H33.1983V12H31.2783L31.1183 11.216H31.0543C30.777 11.4933 30.4516 11.728 30.0783 11.92C29.705 12.1013 29.3263 12.192 28.9423 12.192ZM29.5503 10.272C29.8063 10.272 30.0356 10.2187 30.2383 10.112C30.4516 10.0053 30.6543 9.81867 30.8463 9.552V6.304C30.6436 6.112 30.425 5.97867 30.1903 5.904C29.9663 5.82933 29.7476 5.792 29.5343 5.792C29.161 5.792 28.8303 5.97333 28.5423 6.336C28.2543 6.688 28.1103 7.24267 28.1103 8C28.1103 8.77867 28.233 9.35467 28.4783 9.728C28.7343 10.0907 29.0916 10.272 29.5503 10.272ZM34.4662 12L36.8982 7.872L34.6102 4.064H37.1382L37.8422 5.344C37.9489 5.568 38.0609 5.79733 38.1782 6.032C38.2955 6.256 38.4075 6.48 38.5142 6.704H38.5782C38.6635 6.48 38.7542 6.256 38.8502 6.032C38.9462 5.79733 39.0369 5.568 39.1222 5.344L39.6662 4.064H42.0982L39.7942 8.144L42.2422 12H39.7142L38.9462 10.688C38.8182 10.464 38.6902 10.2347 38.5622 10C38.4449 9.76533 38.3222 9.536 38.1942 9.312H38.1302C38.0342 9.536 37.9329 9.76533 37.8262 10C37.7195 10.224 37.6182 10.4533 37.5222 10.688L36.8982 12H34.4662Z" fill="url(#paint0_linear_10_47)"/>
<defs>
<linearGradient id="paint0_linear_10_47" x1="-7.20779" y1="2.25" x2="28.7036" y2="5.76786" gradientUnits="userSpaceOnUse">
<stop stop-color="#9B22B9"/>
<stop offset="1" stop-color="#246DDC"/>
</linearGradient>
</defs>
</svg>
