<svg width="24" height="24" viewBox="0 0 24 24" fill="none" xmlns="http://www.w3.org/2000/svg">
<path d="M20.2959 7.46396L15.0459 2.21396C14.9415 2.10935 14.8174 2.02636 14.6808 1.96974C14.5442 1.91311 14.3978 1.88396 14.25 1.88396H5.25C4.75272 1.88396 4.27581 2.0815 3.92417 2.43313C3.57254 2.78476 3.375 3.26168 3.375 3.75896V20.259C3.375 20.7562 3.57254 21.2332 3.92417 21.5848C4.27581 21.9364 4.75272 22.134 5.25 22.134H18.75C19.2473 22.134 19.7242 21.9364 20.0758 21.5848C20.4275 21.2332 20.625 20.7562 20.625 20.259V8.25896C20.625 7.96082 20.5066 7.67489 20.2959 7.46396ZM15 5.35271L17.1562 7.50896H15V5.35271ZM5.625 19.884V4.13396H12.75V8.63396C12.75 8.93233 12.8685 9.21847 13.0795 9.42945C13.2905 9.64043 13.5766 9.75896 13.875 9.75896H18.375V19.884H5.625Z" fill="#F0EDF4"/>
</svg>
