<svg width="32" height="32" viewBox="0 0 32 32" fill="none" xmlns="http://www.w3.org/2000/svg">
<path d="M27 6.00896H22.5V4.50896C22.5 3.5807 22.1313 2.69046 21.4749 2.03408C20.8185 1.37771 19.9283 1.00896 19 1.00896H13C12.0717 1.00896 11.1815 1.37771 10.5251 2.03408C9.86875 2.69046 9.5 3.5807 9.5 4.50896V6.00896H5C4.60218 6.00896 4.22064 6.16699 3.93934 6.4483C3.65804 6.7296 3.5 7.11113 3.5 7.50896C3.5 7.90678 3.65804 8.28831 3.93934 8.56962C4.22064 8.85092 4.60218 9.00896 5 9.00896H5.5V26.009C5.5 26.672 5.76339 27.3079 6.23223 27.7767C6.70107 28.2456 7.33696 28.509 8 28.509H24C24.663 28.509 25.2989 28.2456 25.7678 27.7767C26.2366 27.3079 26.5 26.672 26.5 26.009V9.00896H27C27.3978 9.00896 27.7794 8.85092 28.0607 8.56962C28.342 8.28831 28.5 7.90678 28.5 7.50896C28.5 7.11113 28.342 6.7296 28.0607 6.4483C27.7794 6.16699 27.3978 6.00896 27 6.00896ZM12.5 4.50896C12.5 4.37635 12.5527 4.24917 12.6464 4.1554C12.7402 4.06164 12.8674 4.00896 13 4.00896H19C19.1326 4.00896 19.2598 4.06164 19.3536 4.1554C19.4473 4.24917 19.5 4.37635 19.5 4.50896V6.00896H12.5V4.50896ZM23.5 25.509H8.5V9.00896H23.5V25.509ZM14.5 13.009V21.009C14.5 21.4068 14.342 21.7883 14.0607 22.0696C13.7794 22.3509 13.3978 22.509 13 22.509C12.6022 22.509 12.2206 22.3509 11.9393 22.0696C11.658 21.7883 11.5 21.4068 11.5 21.009V13.009C11.5 12.6111 11.658 12.2296 11.9393 11.9483C12.2206 11.667 12.6022 11.509 13 11.509C13.3978 11.509 13.7794 11.667 14.0607 11.9483C14.342 12.2296 14.5 12.6111 14.5 13.009ZM20.5 13.009V21.009C20.5 21.4068 20.342 21.7883 20.0607 22.0696C19.7794 22.3509 19.3978 22.509 19 22.509C18.6022 22.509 18.2206 22.3509 17.9393 22.0696C17.658 21.7883 17.5 21.4068 17.5 21.009V13.009C17.5 12.6111 17.658 12.2296 17.9393 11.9483C18.2206 11.667 18.6022 11.509 19 11.509C19.3978 11.509 19.7794 11.667 20.0607 11.9483C20.342 12.2296 20.5 12.6111 20.5 13.009Z" fill="#C05851"/>
</svg>
